<?xml version="1.0" standalone="no"?>
<svg xmlns="http://www.w3.org/2000/svg" viewBox="0 0 104.352 36" width="104.352" height="36"><g fill="#ff8888" color="#ff8888" transform="translate(0 4.291666666666666) scale(0.5833334)"><svg width="48.0" height="47.0" x="0.0" y="0.0" viewBox="0 0 48 47"><path fill="currentColor" fill-rule="evenodd" d="M32.083 0l-.46.265-2.644 1.527-13.062 7.542L3.854 30.228.267 36.442l-.267.46 2.117 1.222 13.925 8.042.123.07H48V27.57l-.071-.124L34.953 4.97 32.083 0zM25.04 5.292l6.654-3.841 6.547 11.34-13.2-7.5zm-7.67 4.43l6.604-3.814 15.317 8.703 6.725 11.65-28.647-16.54zm-.531.92l29.566 17.07-29.566 17.07v-34.14zM9.171 40.97l-.123-17.615 6.728-11.65v33.078L9.17 40.97zm-7.72-4.457l6.547-11.338.107 15.18-6.654-3.842zm45.487-7.88v7.627l-15.194 8.912H18.29l28.648-16.54zm0 8.858v7.681H33.842l13.096-7.681zM23.567 22.294l9.384 5.42-9.384 5.417V22.294zm1.06 1.84v7.156l6.198-3.577-6.198-3.578z"></path></svg></g><path fill="#0b0cac" fill-rule="nonzero" d="M2.81 16.97L0.10 16.97Q0 16.97 0 16.85L0 16.85L0.05 0.36Q0.05 0.26 0.14 0.26L0.14 0.26L4.99 0.26Q6.29 0.26 7.38 0.90Q8.47 1.54 9.12 2.60Q9.77 3.67 9.77 5.02L9.77 5.02Q9.77 5.90 9.50 6.61Q9.24 7.32 8.88 7.81Q8.52 8.30 8.23 8.54L8.23 8.54Q9.53 9.98 9.53 11.93L9.53 11.93L9.55 16.85Q9.55 16.97 9.43 16.97L9.43 16.97L6.72 16.97Q6.62 16.97 6.62 16.90L6.62 16.90L6.62 11.93Q6.62 11.06 6.01 10.43Q5.40 9.79 4.51 9.79L4.51 9.79L2.93 9.79L2.90 16.85Q2.90 16.97 2.81 16.97L2.81 16.97ZM2.93 3.14L2.93 6.91L4.99 6.91Q5.74 6.91 6.31 6.36Q6.89 5.81 6.89 5.02L6.89 5.02Q6.89 4.25 6.32 3.70Q5.76 3.14 4.99 3.14L4.99 3.14L2.93 3.14ZM15.89 17.21L15.89 17.21Q14.59 17.21 13.52 16.55Q12.46 15.89 11.81 14.80Q11.16 13.70 11.16 12.38L11.16 12.38L11.18 4.78Q11.18 3.46 11.82 2.38Q12.46 1.30 13.54 0.65Q14.62 0 15.89 0L15.89 0Q17.18 0 18.24 0.65Q19.30 1.30 19.93 2.38Q20.57 3.46 20.57 4.78L20.57 4.78L20.59 12.38Q20.59 13.70 19.96 14.80Q19.32 15.89 18.25 16.55Q17.18 17.21 15.89 17.21ZM15.89 14.30L15.89 14.30Q16.61 14.30 17.15 13.72Q17.69 13.13 17.69 12.38L17.69 12.38L17.66 4.78Q17.66 3.98 17.16 3.43Q16.66 2.88 15.89 2.88L15.89 2.88Q15.14 2.88 14.62 3.42Q14.09 3.96 14.09 4.78L14.09 4.78L14.09 12.38Q14.09 13.18 14.62 13.74Q15.14 14.30 15.89 14.30ZM26.83 17.21L26.83 17.21Q25.51 17.21 24.44 16.55Q23.38 15.89 22.75 14.78Q22.13 13.68 22.13 12.31L22.13 12.31L22.15 4.82Q22.15 3.50 22.76 2.41Q23.38 1.32 24.44 0.66Q25.51 0 26.83 0L26.83 0Q28.15 0 29.21 0.65Q30.26 1.30 30.89 2.39Q31.51 3.48 31.51 4.82L31.51 4.82L31.51 5.93Q31.51 6.02 31.42 6.02L31.42 6.02L28.73 6.02Q28.63 6.02 28.63 5.93L28.63 5.93L28.63 4.82Q28.63 4.03 28.12 3.46Q27.60 2.88 26.83 2.88L26.83 2.88Q25.97 2.88 25.51 3.47Q25.06 4.06 25.06 4.82L25.06 4.82L25.06 12.31Q25.06 13.20 25.57 13.75Q26.09 14.30 26.83 14.30L26.83 14.30Q27.60 14.30 28.12 13.69Q28.63 13.08 28.63 12.31L28.63 12.31L28.63 11.21Q28.63 11.11 28.73 11.11L28.73 11.11L31.44 11.11Q31.54 11.11 31.54 11.21L31.54 11.21L31.54 12.31Q31.54 13.68 30.90 14.78Q30.26 15.89 29.21 16.55Q28.15 17.21 26.83 17.21ZM37.73 17.21L37.73 17.21Q36.43 17.21 35.36 16.55Q34.30 15.89 33.65 14.80Q33 13.70 33 12.38L33 12.38L33.02 4.78Q33.02 3.46 33.66 2.38Q34.30 1.30 35.38 0.65Q36.46 0 37.73 0L37.73 0Q39.02 0 40.08 0.65Q41.14 1.30 41.77 2.38Q42.41 3.46 42.41 4.78L42.41 4.78L42.43 12.38Q42.43 13.70 41.80 14.80Q41.16 15.89 40.09 16.55Q39.02 17.21 37.73 17.21ZM37.73 14.30L37.73 14.30Q38.45 14.30 38.99 13.72Q39.53 13.13 39.53 12.38L39.53 12.38L39.50 4.78Q39.50 3.98 39 3.43Q38.50 2.88 37.73 2.88L37.73 2.88Q36.98 2.88 36.46 3.42Q35.93 3.96 35.93 4.78L35.93 4.78L35.93 12.38Q35.93 13.18 36.46 13.74Q36.98 14.30 37.73 14.30ZM52.10 16.97L44.35 16.97Q44.26 16.97 44.26 16.85L44.26 16.85L44.28 0.38Q44.28 0.26 44.40 0.26L44.40 0.26L47.06 0.26Q47.18 0.26 47.18 0.38L47.18 0.38L47.16 14.02L52.10 14.02Q52.22 14.02 52.22 14.14L52.22 14.14L52.22 16.85Q52.22 16.97 52.10 16.97L52.10 16.97ZM56.62 16.97L53.90 16.97Q53.78 16.97 53.78 16.85L53.78 16.85L53.81 0.36Q53.81 0.26 53.90 0.26L53.90 0.26L56.59 0.26Q56.69 0.26 56.69 0.36L56.69 0.36L56.71 16.85Q56.71 16.97 56.62 16.97L56.62 16.97ZM63.22 16.97L58.92 16.97Q58.82 16.97 58.82 16.85L58.82 16.85L58.87 0.36Q58.87 0.26 58.97 0.26L58.97 0.26L63.58 0.26Q64.94 0.26 66.02 0.92Q67.10 1.58 67.73 2.66Q68.35 3.74 68.35 5.02L68.35 5.02Q68.35 6.05 67.88 6.94Q67.42 7.82 66.77 8.38L66.77 8.38Q67.46 9.07 67.85 9.98Q68.23 10.90 68.23 11.90L68.23 11.90Q68.23 13.30 67.56 14.45Q66.89 15.60 65.75 16.28Q64.61 16.97 63.22 16.97L63.22 16.97ZM61.75 3.12L61.75 6.89L63.58 6.89Q64.42 6.89 64.93 6.30Q65.45 5.71 65.45 5.02L65.45 5.02Q65.45 4.25 64.90 3.68Q64.34 3.12 63.58 3.12L63.58 3.12L61.75 3.12ZM61.75 9.79L61.73 14.04L63.22 14.04Q64.08 14.04 64.70 13.40Q65.33 12.77 65.33 11.90L65.33 11.90Q65.33 11.04 64.70 10.42Q64.08 9.79 63.22 9.79L63.22 9.79L61.75 9.79Z" transform="translate(36, 9.516)"></path></svg>